<svg class="hero-line hero-line-mobile" xmlns="http://www.w3.org/2000/svg" x="0px" y="0px" viewBox="0 0 425 800" style="enable-background:new 0 0 425 800;" xml:space="preserve">
		<style type="text/css">
			.st1 { fill: none; stroke: rgba(255, 255, 255, 0.6); stroke-width: 6; stroke-miterlimit: 10; }
			.st2 { fill: none; stroke: rgba(255, 255, 255, 0.8); stroke-width: 4; stroke-miterlimit: 10; }
			.st3 { fill: none; stroke: rgba(255, 255, 255, 0.8); stroke-width: 2; stroke-miterlimit: 10; }

			.svg-item {
				stroke-dasharray: 200;
				stroke-dashoffset: 800;
				filter: blur(1px);
			}

			.svg-main-item {
				stroke-dasharray: 1000;
				stroke-dashoffset: 5000;
				animation: anim 12s linear infinite;
				filter: blur(4px);
			}

			path {
				pointer-events: all;
			}

			/* Keyframes */
			@keyframes anim {
				to {
					stroke-dashoffset: 0;
				}
			}
		</style>

		<g id="layer">

			<!--	ОБВОДКА	-->
			<path class="st1 svg-main-item" d="M0,638.31c0,0,55-10.31,92-35.31s50-55,50-55s7-23,6-31s-26-25-30-34s-21-47-25-61s-16.34-22-16.34-22
				S72,395,67,382s-10-29-10-36s-7-26-7-26s-6-6-4-15s2-20-1-28s-2-31,2-48s-2-26,12-53s33-48,48-59s23-11,23-11l8-8c0,0,12-7,24-10
				s40-5,57-3s76,14,101,43s42,81,42,81s7,25,7,35s-1,18,5,21s9,13,7,26s-4,11-4,23s1,26-2,36s-9,27-15,29s-10,1-10,11s6,8,8,5
				s7,6,7,9s6,7,7,14s4,10,4,15s4,13,4,13s4,15,5,3s1-26,4-32s10-13,10-13s1.64-4,4.82-4c3.18,0,6.18,3,6.18,9s0,14-1,17s-2,8-1,14
				s2,27.02,2,38.01S409,496,412,506s6,21,9,26s3,20,2,27s-1,14-1,23s1.6,17.27,1.6,17.27s1.4-0.88,1.4,4.42C425,609,425,800,425,800
				H0L0,638.31z"/>


			<!--	БРОВИ	-->
			<path class="st2 svg-item" d="M91,332c0,0,10-2,16-2s37,4,41,5s25,3,25,3s-3-11-23-16s-16-6-35-7S91,332,91,332z"/>
			<path class="st2 svg-item" d="M226,331c0,0,9-14,18-20s16-11,29-15s31.69-3,37.35,0c5.65,3,10.65,6,10.65,6s-8,2-18,3s-37,9-43,12
				s-26,13-26,13l-9,5L226,331z"/>


			<!--	ВЕКИ	-->
			<path class="st2 svg-item" d="M99,370c0,0,13,10,30,9s38-3,44-9s6-6,6-6s5,10-3,17s-15,13-26,16s-31,2-38-3S99,370,99,370z"/>
			<path class="st2 svg-item" d="M239,361c0,0,30.15,3,45.07,0C299,358,320,340,320,340s-2,13-6,19s-4,15-18,19s-29.89,4.69-37.95,3.34
				C250,380,239,361,239,361z"/>


			<!--	ГУБЫ	-->
			<path class="st2 svg-item" d="M157,466c0,0,10,5,22,3s26-6,31-5s8,2,12,1s7-4,9-5s16-1,24-1s15,2,21-2s11-8,11-8s-4,10-10,17s-11,20-20,26
				s-16,12-29,12s-25,1-34-5s-27.15-22.47-27.15-22.47L157,466z"/>


			<!--	НОГТИ	-->
			<path class="st3 svg-item" d="M302,592c0,0,7-3,15-4s14-2,15,2s-2,9-5,9s-17.39,1-20.69,0S302,592,302,592z"/>
			<path class="st3 svg-item" d="M342.56,593.28c0,0,11.44-8.28,16.44-11.28s9-5,12-3s3,7,1,9s-12.05,5.44-14.02,6.22
				C356,595,342.56,593.28,342.56,593.28z"/>
			<path class="st3 svg-item" d="M341,607c0,0,8-6,12-7s7-3,11-3s7,1,6,4s-9,6-13,7S341,607,341,607z"/>
			<path class="st3 svg-item" d="M324,633c0,0,6-6,13-8s11-3,13-1s3,4,1,6s-6,5-11,5S324,633,324,633z"/>

		</g>
</svg>
