<svg class="hero-line hero-line-main" id="layer" xmlns="http://www.w3.org/2000/svg" x="0px" y="0px"
		 viewBox="0 0 1920 1080" xml:space="preserve">


	<style type="text/css">
		.st0 { fill: none; stroke: rgba(255, 255, 255, 0.8); stroke-width: 6; stroke-miterlimit: 10; }
		.st1 { fill: none; stroke: rgba(255, 255, 255, 0.8); stroke-width: 3; stroke-miterlimit: 10; }
		.st2 { fill: none; stroke: rgba(255, 255, 255, 0.6); stroke-width: 6; stroke-miterlimit: 10; }
		.st00 { fill: transparent; }

		.svg-item {
			stroke-dasharray: 200;
			stroke-dashoffset: 800;
			filter: blur(1px);
		}

		.svg-main-item {
			stroke-dasharray: 1000;
			stroke-dashoffset: 5000;
			animation: anim 12s linear infinite;
			filter: blur(4px);
		}

		path {
			pointer-events: all;
		}

		/* Keyframes */
		@keyframes anim {
			to {
				stroke-dashoffset: 0;
			}
		}
	</style>

	<!--  БРОВИ  -->
	<path class="st00 item-plane-1" d="M686.11,464.29c0,0,7.96-6.44,29.56-3.79c21.6,2.65,59.49,7.58,70.11,9.85c10.61,2.27,34.48,4.93,38.65,5.31
          c4.17,0.38,13.64-1.14,0-10.23c-13.64-9.09-40.17-18.19-59.49-23.87c-19.33-5.68-33.73-13.26-50.78-9.85
          C697.09,435.12,686.11,464.29,686.11,464.29z"/>
	<path class="st0 svg-item svg-item-1 hidden" d="M686.11,464.29c0,0,7.96-6.44,29.56-3.79c21.6,2.65,59.49,7.58,70.11,9.85c10.61,2.27,34.48,4.93,38.65,5.31
          c4.17,0.38,13.64-1.14,0-10.23c-13.64-9.09-40.17-18.19-59.49-23.87c-19.33-5.68-33.73-13.26-50.78-9.85
          C697.09,435.12,686.11,464.29,686.11,464.29z"/>

	<path class="st00 item-plane-1" d="M953.26,468.59c0,0-1.52-12.63,14.4-25.77s49.52-34.11,67.96-41.68c18.44-7.58,26.78-18.44,49.26-15.92
          c22.48,2.53,37.89,7.83,49.26,11.12s2.02,7.58-19.45,11.12c-21.47,3.54-56.34,13.89-76.29,24.25c-19.96,10.36-57.6,27.54-57.6,27.54
          L953.26,468.59z"/>
	<path class="st0 svg-item svg-item-1 hidden" d="M953.26,468.59c0,0-1.52-12.63,14.4-25.77s49.52-34.11,67.96-41.68c18.44-7.58,26.78-18.44,49.26-15.92
          c22.48,2.53,37.89,7.83,49.26,11.12s2.02,7.58-19.45,11.12c-21.47,3.54-56.34,13.89-76.29,24.25c-19.96,10.36-57.6,27.54-57.6,27.54
          L953.26,468.59z"/>


	<!--  ГУБЫ  -->
	<path class="st00 item-plane-2" d="M836.55,741.68c0,0,19.71,10.61,36.38,6.06c16.67-4.55,27.28-11.37,43.2-12.88
          c15.92-1.52,34.86,8.71,40.17,7.01s15.92-1.25,22.74-7.16c6.82-5.91,25.77-5.15,32.97-4.58s33.35-1.14,39.79-4.17
          c6.44-3.03,23.68-12.13,33.54-18.76s15.54-16.86-1.33,11.56c-16.86,28.42-28.67,54-50.15,70.42
          c-21.47,16.42-38.91,24.76-58.86,28.04c-19.96,3.28-43.2,4.04-57.6,0c-14.4-4.04-24.76-10.86-35.12-20.97
          S836.55,741.68,836.55,741.68z"/>

	<path class="st0 svg-item svg-item-2 hidden" d="M836.55,741.68c0,0,19.71,10.61,36.38,6.06c16.67-4.55,27.28-11.37,43.2-12.88
          c15.92-1.52,34.86,8.71,40.17,7.01s15.92-1.25,22.74-7.16c6.82-5.91,25.77-5.15,32.97-4.58s33.35-1.14,39.79-4.17
          c6.44-3.03,23.68-12.13,33.54-18.76s15.54-16.86-1.33,11.56c-16.86,28.42-28.67,54-50.15,70.42
          c-21.47,16.42-38.91,24.76-58.86,28.04c-19.96,3.28-43.2,4.04-57.6,0c-14.4-4.04-24.76-10.86-35.12-20.97
          S836.55,741.68,836.55,741.68z"/>


	<!--  ВЕКИ  -->
	<path class="st00 item-plane-3" d="M981.68,514.32c0,0,56.46,4.17,76.55,0c20.08-4.17,53.05-21.6,65.56-29.56c12.51-7.96,28.8-13.64,28.8-13.64
          s22.74-7.58-4.55,24.63s-47.37,54.57-83.75,56.46C1027.92,554.11,981.68,514.32,981.68,514.32z"/>
	<path class="st0 svg-item svg-item-3 hidden" d="M981.68,514.32c0,0,56.46,4.17,76.55,0c20.08-4.17,53.05-21.6,65.56-29.56c12.51-7.96,28.8-13.64,28.8-13.64
          s22.74-7.58-4.55,24.63s-47.37,54.57-83.75,56.46C1027.92,554.11,981.68,514.32,981.68,514.32z"/>

	<path class="st00 item-plane-3" d="M858.53,532.13c0,0-24.25,19.33-47.75,24.63c-23.49,5.31-83.75,5.14-95.49-16.76
          c-11.75-21.89,3.03,16.76,3.03,16.76s16.29,31.07,51.54,30.69c35.24-0.38,70.11-4.93,82.61-18.95
          C864.97,554.48,858.53,532.13,858.53,532.13z"/>
	<path class="st0 svg-item svg-item-3 hidden" d="M858.53,532.13c0,0-24.25,19.33-47.75,24.63c-23.49,5.31-83.75,5.14-95.49-16.76
          c-11.75-21.89,3.03,16.76,3.03,16.76s16.29,31.07,51.54,30.69c35.24-0.38,70.11-4.93,82.61-18.95
          C864.97,554.48,858.53,532.13,858.53,532.13z"/>


	<!--  НОГТИ  -->
	<path class="st00 item-plane-4" d="M1085.14,900.84c2.53-4.04,13.14-15.92,19.96-20.21s16.42-10.61,22.23-11.12c5.81-0.51,14.15-0.76,8.59,9.09
          c-5.56,9.85-10.61,16.67-19.71,20.97c-9.09,4.29-13.89,7.07-18.95,6.32C1092.21,905.14,1085.14,900.84,1085.14,900.84z"/>
	<path class="st1 svg-item svg-item-4 hidden" d="M1085.14,900.84c2.53-4.04,13.14-15.92,19.96-20.21s16.42-10.61,22.23-11.12c5.81-0.51,14.15-0.76,8.59,9.09
          c-5.56,9.85-10.61,16.67-19.71,20.97c-9.09,4.29-13.89,7.07-18.95,6.32C1092.21,905.14,1085.14,900.84,1085.14,900.84z"/>

	<path class="st00 item-plane-4" d="M1152.08,894.53c0,0,2.78-14.4,8.34-21.98c5.56-7.58,16.42-19.71,24.51-25.01c8.08-5.31,10.11,1.01,13.14,6.82
          c3.03,5.81-1.52,11.62-14.4,22.74C1170.78,888.21,1152.08,894.53,1152.08,894.53z"/>
	<path class="st1 svg-item svg-item-4 hidden" d="M1152.08,894.53c0,0,2.78-14.4,8.34-21.98c5.56-7.58,16.42-19.71,24.51-25.01c8.08-5.31,10.11,1.01,13.14,6.82
          c3.03,5.81-1.52,11.62-14.4,22.74C1170.78,888.21,1152.08,894.53,1152.08,894.53z"/>

	<path class="st00 item-plane-4" d="M1148.55,921.56c0,0,11.87-18.69,18.95-23.49s23.75-15.16,29.81-11.62c6.06,3.54,8.84,7.07,0,14.15
          c-8.84,7.07-29.31,16.93-29.31,16.93L1148.55,921.56z"/>
	<path class="st1 svg-item svg-item-4 hidden" d="M1148.55,921.56c0,0,11.87-18.69,18.95-23.49s23.75-15.16,29.81-11.62c6.06,3.54,8.84,7.07,0,14.15
          c-8.84,7.07-29.31,16.93-29.31,16.93L1148.55,921.56z"/>

	<path class="st00 item-plane-4" d="M1135.92,979.16c0,0,28.55-30.82,34.86-30.82s14.91,4.29,11.12,10.86c-3.79,6.57-12.88,13.14-19.96,17.68
          C1154.86,981.43,1135.92,979.16,1135.92,979.16z"/>
	<path class="st1 svg-item svg-item-4 hidden" d="M1135.92,979.16c0,0,28.55-30.82,34.86-30.82s14.91,4.29,11.12,10.86c-3.79,6.57-12.88,13.14-19.96,17.68
          C1154.86,981.43,1135.92,979.16,1135.92,979.16z"/>


	<!--  ОБВОДКА  -->
	<path class="st2 svg-main-item svg-item-5" d="M316.13,1082.48c0,0,34.36-18.69,55.07-23.24s63.66-12.13,87.41-15.66c23.75-3.54,71.75-2.02,93.98,0
          c22.23,2.02,73.77-16.67,103.58-37.89c29.81-21.22,46.48-23.24,84.88-46.99c38.4-23.75,75.28-75.28,80.84-97.01
          c5.56-21.73,12.13-29.31-12.13-49.52c-24.25-20.21-63.16-69.22-86.91-128.84c-23.75-59.62-49.01-144-56.08-178.36
          c-7.07-34.36-22.74-83.37-37.39-115.71s-22.23-103.07-5.05-167.75s43.45-132.88,70.74-160.67C722.36,33.05,767.83,0,767.83,0h400.67
          c0,0,65.68,42.65,86.4,98.23s33.35,93.98,40.93,127.33c7.58,33.35,5.05,72.25,5.05,72.25s17.18-7.07,25.26,16.67
          c8.08,23.75,8.08,73.26,0,108.63s-7.07,58.11-17.68,81.85c-10.61,23.75-14.65,35.37-11.12,38.4c3.54,3.03,11.12,28.55,2.02,44.09
          c-9.09,15.53-9.09,25.64-11.12,40.8c-2.02,15.16-5.56,27.28-2.02,30.32s14.65,4.55,15.66,19.71c1.01,15.16,1.01,28.8-1.01,36.38
          c-2.02,7.58,3.54,27.28,1.01,42.44c-2.53,15.16-1.52,34.86,0,50.02c1.52,15.16,6.57,34.86-1.52,51.03
          c-8.08,16.17-15.66,43.45-13.14,54.57c2.53,11.12,6.57,35.62,6.57,35.62s8.84,5.94,28.55,19.96
          c19.71,14.02,82.61,55.33,104.59,61.01c21.98,5.68,24.63,11.75,47.75,12.88c23.12,1.14,42.06-3.03,65.94-2.27
          s61.39,9.85,72.76,10.23c11.37,0.38,44.34-1.14,63.28-3.41s67.45,15.92,74.27,20.84c6.82,4.93,18.57,12.42,18.57,12.42
          L316.13,1082.48z"/>
  </svg>